<?xml version="1.0" encoding="UTF-8"?>
<svg id="Layer_2" data-name="Layer 2" xmlns="http://www.w3.org/2000/svg" viewBox="0 0 605.83 359.71">
  <defs>
    <style>
      .cls-1, .cls-2, .cls-3, .cls-4 {
        font-family: FuturaBT-Heavy, 'FuturaBT Heavy';
        font-weight: 800;
      }

      .cls-1, .cls-3 {
        font-size: 191.97px;
      }

      .cls-1, .cls-5, .cls-4 {
        fill: #231f20;
      }

      .cls-6 {
        letter-spacing: .03em;
      }

      .cls-2, .cls-7, .cls-3 {
        fill: #fff;
      }

      .cls-2, .cls-4 {
        font-size: 62.94px;
      }

      .cls-7, .cls-5 {
        stroke-width: 0px;
      }

      .cls-8 {
        letter-spacing: 0em;
      }

      .cls-9 {
        letter-spacing: 0em;
      }
    </style>
  </defs>
  <g id="_1:1" data-name="1:1">
    <g>
      <g>
        <text class="cls-1" transform="translate(313.61 213.19) scale(.92 1)"><tspan x="0" y="0">BS</tspan></text>
        <text class="cls-4" transform="translate(154.88 298.19)"><tspan class="cls-8" x="0" y="0">R</tspan><tspan class="cls-9" x="34.05" y="0">ODU</tspan><tspan class="cls-6" x="160.06" y="0">C</tspan><tspan class="cls-9" x="198.33" y="0">TION</tspan></text>
        <g>
          <path class="cls-5" d="m148.02,35.37c76.55,0,162.81,5.97,162.31,91.25,0,85.02-86.61,90.37-143.04,90.4q20.99-14.66,38.18-26.74c48.1,0,76.39-30.34,76.54-64.36-.14-47.53-44.12-62.56-94.04-62.56-13.32-9.34-25.28-17.72-39.95-27.99Z"/>
          <rect class="cls-5" x="157.35" y="71" width="30.61" height="119.45"/>
          <polygon class="cls-5" points="157.35 190.24 157.35 216.98 157.36 216.98 195.54 190.24 157.35 190.24"/>
          <polygon class="cls-5" points="137.09 35.37 77.54 35.37 168.38 98.98 187.97 71 137.09 35.37"/>
        </g>
        <polygon class="cls-5" points="116.34 78.04 116.34 216.99 138.72 216.99 138.72 93.7 116.34 78.04"/>
        <rect class="cls-5" x="0" y="0" width="605.83" height="22.37"/>
        <rect class="cls-5" x="84.06" y="312.87" width="521.77" height="22.37"/>
        <rect class="cls-5" x="583.45" y="0" width="22.37" height="335.24"/>
        <polygon class="cls-5" points="22.37 327.37 22.37 0 0 0 0 359.71 22.37 327.37"/>
        <polygon class="cls-5" points="0 359.71 99.91 217.02 81.59 204.19 0 320.71 0 359.71"/>
        <polygon class="cls-5" points="77.54 50.87 77.54 217.02 99.91 217.02 99.91 66.54 77.54 50.87"/>
        <polygon class="cls-5" points="106.28 230.06 84.06 261.8 84.06 335.24 106.43 335.24 106.43 230.06 106.28 230.06"/>
        <path class="cls-5" d="m141.38,237.02c-5.8-4.64-14.77-6.96-26.91-6.96h-2.85v14.61h2.85c5.4,0,9.32,1.04,11.76,3.13,2.44,2.09,3.67,5.41,3.67,9.96,0,4.93-1.22,8.52-3.67,10.75-2.45,2.24-6.37,3.35-11.76,3.35h-2.85v15.43h5.44c10.33,0,18.41-2.55,24.25-7.65,5.84-5.1,8.76-12.14,8.76-21.12,0-9.7-2.9-16.86-8.7-21.5Z"/>
        <g>
          <path class="cls-5" d="m545.26,37.28c.09.01.18.03.27.03,5.43.25,10.21,2.14,14.32,5.69,3.84,3.32,6.33,7.48,7.5,12.43.27,1.14.44,2.29.52,3.45.08,1.11.09,2.23.02,3.34-.35,5.12-2.17,9.66-5.48,13.58-2.91,3.45-6.54,5.86-10.85,7.23-1.25.4-2.52.68-3.82.85-1.33.18-2.67.27-4.01.21-3.36-.13-6.55-.92-9.56-2.41-2.19-1.08-4.16-2.47-5.91-4.18-2.75-2.68-4.75-5.84-5.96-9.49-.48-1.45-.82-2.93-.99-4.45-.08-.68-.12-1.36-.19-2.04,0-.09-.03-.18-.04-.27,0-.39,0-.79,0-1.18.03-.25.07-.49.08-.74.06-1.14.2-2.26.43-3.37.98-4.7,3.18-8.75,6.63-12.07,4.27-4.11,9.39-6.32,15.32-6.6.09,0,.18-.02.27-.03.48,0,.97,0,1.45,0Zm-.74,1.36c-12.16,0-22.03,9.86-22.05,22.01-.02,12.16,9.78,21.95,21.78,22.09,12.21.14,22.23-9.67,22.32-21.87.09-12.31-9.86-22.24-22.05-22.23Z"/>
          <path class="cls-5" d="m562.92,50.7h-22.85s-.02-.02-.02-.03c0,0,0-.02,0-.02,2.06-3.57,4.11-7.13,6.17-10.7.02-.03.04-.06.08-.1,3.52.3,6.76,1.41,9.71,3.35,2.92,1.92,5.21,4.41,6.91,7.5Z"/>
          <path class="cls-5" d="m562.36,71.61c-3.82-6.61-7.62-13.2-11.44-19.81h12.52c2.83,5.68,2.83,13.59-1.08,19.81Z"/>
          <path class="cls-5" d="m527.35,48.76c4.18-6.09,11.12-9.19,17.66-8.98,0,0,0,.01.01.02,0,0,0,.02,0,.02-3.78,6.56-7.56,13.11-11.34,19.67-.02.03-.04.06-.08.11-2.09-3.62-4.17-7.22-6.25-10.84Z"/>
          <path class="cls-5" d="m555.45,61.79c2.09,3.61,4.17,7.21,6.26,10.84-1.85,2.63-4.16,4.75-6.97,6.32-3.32,1.86-6.9,2.73-10.71,2.65.04-.17,11.22-19.56,11.42-19.81Z"/>
          <path class="cls-5" d="m525.61,69.58c-2.95-6.03-2.65-13.9,1.09-19.81,3.81,6.6,7.61,13.19,11.42,19.78-.17.05-11.96.08-12.51.03Z"/>
          <path class="cls-5" d="m542.76,81.53c-2.44-.2-4.78-.82-7.01-1.85-2.73-1.27-5.08-3.05-7.05-5.32-.97-1.12-1.82-2.34-2.54-3.67h22.84c-.03.16-6.01,10.55-6.24,10.84Z"/>
        </g>
      </g>
      <g>
        <text class="cls-3" transform="translate(313.61 213.19) scale(.92 1)"><tspan x="0" y="0">BS</tspan></text>
        <text class="cls-2" transform="translate(154.88 298.19)"><tspan class="cls-8" x="0" y="0">R</tspan><tspan class="cls-9" x="34.05" y="0">ODU</tspan><tspan class="cls-6" x="160.06" y="0">C</tspan><tspan class="cls-9" x="198.33" y="0">TION</tspan></text>
        <g>
          <path class="cls-7" d="m148.02,35.37c76.55,0,162.81,5.97,162.31,91.25,0,85.02-86.61,90.37-143.04,90.4q20.99-14.66,38.18-26.74c48.1,0,76.39-30.34,76.54-64.36-.14-47.53-44.12-62.56-94.04-62.56-13.32-9.34-25.28-17.72-39.95-27.99Z"/>
          <rect class="cls-7" x="157.35" y="71" width="30.61" height="119.45"/>
          <polygon class="cls-7" points="157.35 190.24 157.35 216.98 157.36 216.98 195.54 190.24 157.35 190.24"/>
          <polygon class="cls-7" points="137.09 35.37 77.54 35.37 168.38 98.98 187.97 71 137.09 35.37"/>
        </g>
        <polygon class="cls-7" points="116.34 78.04 116.34 216.99 138.72 216.99 138.72 93.7 116.34 78.04"/>
        <rect class="cls-7" x="0" y="0" width="605.83" height="22.37"/>
        <rect class="cls-7" x="84.06" y="312.87" width="521.77" height="22.37"/>
        <rect class="cls-7" x="583.45" y="0" width="22.37" height="335.24"/>
        <polygon class="cls-7" points="22.37 327.37 22.37 0 0 0 0 359.71 22.37 327.37"/>
        <polygon class="cls-7" points="0 359.71 99.91 217.02 81.59 204.19 0 320.71 0 359.71"/>
        <polygon class="cls-7" points="77.54 50.87 77.54 217.02 99.91 217.02 99.91 66.54 77.54 50.87"/>
        <polygon class="cls-7" points="106.28 230.06 84.06 261.8 84.06 335.24 106.43 335.24 106.43 230.06 106.28 230.06"/>
        <path class="cls-7" d="m141.38,237.02c-5.8-4.64-14.77-6.96-26.91-6.96h-2.85v14.61h2.85c5.4,0,9.32,1.04,11.76,3.13,2.44,2.09,3.67,5.41,3.67,9.96,0,4.93-1.22,8.52-3.67,10.75-2.45,2.24-6.37,3.35-11.76,3.35h-2.85v15.43h5.44c10.33,0,18.41-2.55,24.25-7.65,5.84-5.1,8.76-12.14,8.76-21.12,0-9.7-2.9-16.86-8.7-21.5Z"/>
        <g>
          <path class="cls-7" d="m545.26,37.28c.09.01.18.03.27.03,5.43.25,10.21,2.14,14.32,5.69,3.84,3.32,6.33,7.48,7.5,12.43.27,1.14.44,2.29.52,3.45.08,1.11.09,2.23.02,3.34-.35,5.12-2.17,9.66-5.48,13.58-2.91,3.45-6.54,5.86-10.85,7.23-1.25.4-2.52.68-3.82.85-1.33.18-2.67.27-4.01.21-3.36-.13-6.55-.92-9.56-2.41-2.19-1.08-4.16-2.47-5.91-4.18-2.75-2.68-4.75-5.84-5.96-9.49-.48-1.45-.82-2.93-.99-4.45-.08-.68-.12-1.36-.19-2.04,0-.09-.03-.18-.04-.27,0-.39,0-.79,0-1.18.03-.25.07-.49.08-.74.06-1.14.2-2.26.43-3.37.98-4.7,3.18-8.75,6.63-12.07,4.27-4.11,9.39-6.32,15.32-6.6.09,0,.18-.02.27-.03.48,0,.97,0,1.45,0Zm-.74,1.36c-12.16,0-22.03,9.86-22.05,22.01-.02,12.16,9.78,21.95,21.78,22.09,12.21.14,22.23-9.67,22.32-21.87.09-12.31-9.86-22.24-22.05-22.23Z"/>
          <path class="cls-7" d="m562.92,50.7h-22.85s-.02-.02-.02-.03c0,0,0-.02,0-.02,2.06-3.57,4.11-7.13,6.17-10.7.02-.03.04-.06.08-.1,3.52.3,6.76,1.41,9.71,3.35,2.92,1.92,5.21,4.41,6.91,7.5Z"/>
          <path class="cls-7" d="m562.36,71.61c-3.82-6.61-7.62-13.2-11.44-19.81h12.52c2.83,5.68,2.83,13.59-1.08,19.81Z"/>
          <path class="cls-7" d="m527.35,48.76c4.18-6.09,11.12-9.19,17.66-8.98,0,0,0,.01.01.02,0,0,0,.02,0,.02-3.78,6.56-7.56,13.11-11.34,19.67-.02.03-.04.06-.08.11-2.09-3.62-4.17-7.22-6.25-10.84Z"/>
          <path class="cls-7" d="m555.45,61.79c2.09,3.61,4.17,7.21,6.26,10.84-1.85,2.63-4.16,4.75-6.97,6.32-3.32,1.86-6.9,2.73-10.71,2.65.04-.17,11.22-19.56,11.42-19.81Z"/>
          <path class="cls-7" d="m525.61,69.58c-2.95-6.03-2.65-13.9,1.09-19.81,3.81,6.6,7.61,13.19,11.42,19.78-.17.05-11.96.08-12.51.03Z"/>
          <path class="cls-7" d="m542.76,81.53c-2.44-.2-4.78-.82-7.01-1.85-2.73-1.27-5.08-3.05-7.05-5.32-.97-1.12-1.82-2.34-2.54-3.67h22.84c-.03.16-6.01,10.55-6.24,10.84Z"/>
        </g>
      </g>
    </g>
  </g>
</svg>